<svg width="32" height="32" viewBox="0 0 32 32" fill="none" xmlns="http://www.w3.org/2000/svg">
<circle cx="16" cy="16" r="16" fill="#242424"/>
<path d="M22.9464 9.53674C21.2904 9.74691 19.7201 10.5921 17.9761 12.2125C17.5514 12.6057 17.2597 12.8973 16.5668 13.6227C16.0734 14.1402 16.0005 14.2058 15.964 14.1854C15.9404 14.1719 15.7495 13.9753 15.5371 13.747C13.0831 11.1006 11.4914 9.98646 9.64872 9.62939C8.44744 9.39662 7.20112 9.54352 6.06849 10.0497C4.17004 10.8995 2.77999 12.6871 2.39172 14.7798C2.30377 15.2476 2.28232 15.4985 2.28232 16.0567C2.28232 16.9426 2.39816 17.6816 2.65986 18.4635C3.38492 20.6421 5.11604 22.1404 7.30194 22.4839C8.66196 22.6986 10.17 22.4252 11.5 21.7268C12.0212 21.4534 12.461 21.1619 13.008 20.7302C13.6966 20.1901 14.2007 19.7132 15.284 18.5833C15.6615 18.1878 15.9855 17.8646 16.0005 17.8646C16.0176 17.8646 16.1656 18.0138 16.3308 18.1946C16.6998 18.5991 17.6007 19.5144 17.9826 19.8737C19.7416 21.5257 21.0759 22.2579 22.7577 22.502C22.8821 22.5201 23.1738 22.5291 23.5085 22.5291C23.9654 22.5291 24.1069 22.5201 24.3665 22.4771C25.7608 22.2512 26.9514 21.6206 27.9253 20.5969C28.9056 19.5641 29.517 18.2352 29.6907 16.7572C29.7315 16.407 29.7251 15.4849 29.6779 15.1301C29.5105 13.8623 29.088 12.7187 28.4594 11.8374C28.2556 11.5481 27.8288 11.0871 27.5477 10.8543C26.7669 10.1989 25.7523 9.75595 24.5917 9.56612C24.2228 9.50736 23.3175 9.48928 22.9464 9.53674ZM9.36556 12.2464C10.0863 12.4069 10.8157 12.773 11.5322 13.3334C11.7874 13.5323 12.1693 13.8623 12.4181 14.0996C12.7313 14.4001 14.3058 16.0205 14.3058 16.0431C14.3058 16.0793 12.9329 17.5098 12.6004 17.8239C11.545 18.8138 10.569 19.4398 9.65087 19.72C9.21755 19.8511 8.96228 19.8873 8.43886 19.8873C8.03129 19.8873 7.93476 19.8805 7.72239 19.8353C6.45676 19.5663 5.53006 18.6963 5.12677 17.4013C4.78355 16.2962 4.8479 15.2476 5.31983 14.2713C5.86041 13.1504 6.8343 12.4091 8.03558 12.2035C8.17072 12.1809 8.34877 12.1741 8.6641 12.1809C9.03307 12.1876 9.14676 12.1989 9.36556 12.2464ZM24.0876 12.2035C24.7891 12.3074 25.3854 12.5899 25.8917 13.0577C26.8334 13.9255 27.2839 15.46 27.0007 16.8476C26.7133 18.2601 25.6815 19.4036 24.3644 19.7743C24.0469 19.8624 23.7659 19.8986 23.3905 19.8986C22.7255 19.8986 22.1913 19.7584 21.5242 19.4127C20.8227 19.0511 20.147 18.529 19.2997 17.6929C18.7677 17.1686 17.7059 16.068 17.6994 16.0341C17.693 15.9979 18.6991 14.9154 19.1324 14.495C20.5954 13.0713 21.7516 12.3865 22.9936 12.2035C23.2725 12.1628 23.8131 12.1628 24.0876 12.2035Z" fill="white"/>
<rect x="7.18152" y="15.4727" width="3.94733" height="1.2038" fill="white"/>
<rect x="21.0134" y="15.4667" width="3.94733" height="1.2038" fill="white"/>
<rect x="22.4" y="18.0274" width="3.94733" height="1.2038" transform="rotate(-89.9509 22.4 18.0274)" fill="white"/>
</svg>
