<svg width="32" height="32" viewBox="0 0 32 32" fill="none" xmlns="http://www.w3.org/2000/svg">
<circle cx="16" cy="16" r="16" fill="#242424"/>
<g clip-path="url(#clip0_11:68)">
<path d="M11.579 11.5789C11.579 11.1881 11.7342 10.8133 12.0106 10.5369C12.287 10.2605 12.6618 10.1053 13.0526 10.1053C13.2481 10.1053 13.4355 10.0276 13.5737 9.88945C13.7119 9.75126 13.7895 9.56384 13.7895 9.36842C13.7895 9.173 13.7119 8.98558 13.5737 8.84739C13.4355 8.70921 13.2481 8.63158 13.0526 8.63158C12.2709 8.63158 11.5213 8.9421 10.9685 9.49484C10.4158 10.0476 10.1053 10.7973 10.1053 11.5789V13.7895C10.1053 14.1803 9.95001 14.5552 9.67364 14.8315C9.39727 15.1079 9.02243 15.2632 8.63159 15.2632C8.43616 15.2632 8.24875 15.3408 8.11056 15.479C7.97238 15.6172 7.89474 15.8046 7.89474 16C7.89474 16.1954 7.97238 16.3828 8.11056 16.521C8.24875 16.6592 8.43616 16.7368 8.63159 16.7368C9.02243 16.7368 9.39727 16.8921 9.67364 17.1685C9.95001 17.4448 10.1053 17.8197 10.1053 18.2105V20.4211C10.1053 21.2027 10.4158 21.9524 10.9685 22.5052C11.5213 23.0579 12.2709 23.3684 13.0526 23.3684C13.2481 23.3684 13.4355 23.2908 13.5737 23.1526C13.7119 23.0144 13.7895 22.827 13.7895 22.6316C13.7895 22.4362 13.7119 22.2487 13.5737 22.1106C13.4355 21.9724 13.2481 21.8947 13.0526 21.8947C12.6618 21.8947 12.287 21.7395 12.0106 21.4631C11.7342 21.1867 11.579 20.8119 11.579 20.4211V18.2105C11.5766 17.7909 11.4846 17.3767 11.3093 16.9954C11.1339 16.6142 10.8792 16.2748 10.5621 16C10.8792 15.7252 11.1339 15.3858 11.3093 15.0046C11.4846 14.6233 11.5766 14.2091 11.579 13.7895V11.5789ZM23.3684 15.2632C22.9776 15.2632 22.6027 15.1079 22.3264 14.8315C22.05 14.5552 21.8947 14.1803 21.8947 13.7895V11.5789C21.8947 10.7973 21.5842 10.0476 21.0315 9.49484C20.4787 8.9421 19.7291 8.63158 18.9474 8.63158C18.752 8.63158 18.5645 8.70921 18.4264 8.84739C18.2882 8.98558 18.2105 9.173 18.2105 9.36842C18.2105 9.56384 18.2882 9.75126 18.4264 9.88945C18.5645 10.0276 18.752 10.1053 18.9474 10.1053C19.3382 10.1053 19.7131 10.2605 19.9894 10.5369C20.2658 10.8133 20.4211 11.1881 20.4211 11.5789V13.7895C20.4234 14.2091 20.5154 14.6233 20.6907 15.0046C20.8661 15.3858 21.1208 15.7252 21.4379 16C21.1208 16.2748 20.8661 16.6142 20.6907 16.9954C20.5154 17.3767 20.4234 17.7909 20.4211 18.2105V20.4211C20.4211 20.8119 20.2658 21.1867 19.9894 21.4631C19.7131 21.7395 19.3382 21.8947 18.9474 21.8947C18.752 21.8947 18.5645 21.9724 18.4264 22.1106C18.2882 22.2487 18.2105 22.4362 18.2105 22.6316C18.2105 22.827 18.2882 23.0144 18.4264 23.1526C18.5645 23.2908 18.752 23.3684 18.9474 23.3684C19.7291 23.3684 20.4787 23.0579 21.0315 22.5052C21.5842 21.9524 21.8947 21.2027 21.8947 20.4211V18.2105C21.8947 17.8197 22.05 17.4448 22.3264 17.1685C22.6027 16.8921 22.9776 16.7368 23.3684 16.7368C23.5639 16.7368 23.7513 16.6592 23.8895 16.521C24.0276 16.3828 24.1053 16.1954 24.1053 16C24.1053 15.8046 24.0276 15.6172 23.8895 15.479C23.7513 15.3408 23.5639 15.2632 23.3684 15.2632Z" fill="white"/>
</g>
<defs>
<clipPath id="clip0_11:68">
<rect width="17.6842" height="17.6842" fill="white" transform="translate(7.1579 7.15789)"/>
</clipPath>
</defs>
</svg>
