<svg width="32" height="32" viewBox="0 0 32 32" fill="none" xmlns="http://www.w3.org/2000/svg">
<circle cx="16" cy="16" r="16" fill="#242424"/>
<path d="M9.8208 8.98246L10.9455 21.6101L15.9926 23.0175L21.0536 21.6048L22.1792 8.98246H9.8208ZM19.8428 11.8756L19.4683 16.0824L19.4696 16.1051L19.4678 16.1571V16.1567L19.2017 19.098L19.1724 19.3593L16 20.2366V20.2371L15.9974 20.2393L12.8306 19.3566L12.6161 16.9248H14.1691L14.2792 18.1615L16.0004 18.6278L16 18.6286L17.7273 18.1554L17.9099 16.1418H14.2989L14.2679 15.8014L14.197 15.0039L14.1604 14.5757H18.0472L18.1887 13.0096H12.2683L12.2372 12.6696L12.1668 11.8717L12.1297 11.4435H19.8799L19.8428 11.8756Z" fill="white"/>
</svg>
