<svg width="32" height="32" viewBox="0 0 32 32" fill="none" xmlns="http://www.w3.org/2000/svg">
<circle cx="16" cy="16" r="16" fill="#242424"/>
<path d="M15.4149 7.26158C14.3521 8.00903 13.1476 8.85626 12.5023 10.2579C11.3813 12.7031 14.7961 15.3705 14.942 15.4829C14.9759 15.509 15.0165 15.522 15.057 15.522C15.1 15.522 15.143 15.5073 15.178 15.478C15.2458 15.4213 15.265 15.325 15.2243 15.2466C15.2119 15.2228 13.9862 12.8419 14.0318 11.1339C14.0479 10.539 14.8804 9.86418 15.7618 9.14968C16.5691 8.49527 17.4841 7.75355 18.0195 6.88589C19.1948 4.97599 17.8885 3.09799 17.8752 3.07929C17.8233 3.00645 17.7275 2.97998 17.6456 3.01595C17.5638 3.05199 17.5185 3.14052 17.5372 3.22792C17.5398 3.24029 17.7939 4.48221 17.087 5.76168C16.7957 6.29038 16.1558 6.7405 15.4149 7.26158Z" fill="white"/>
<path d="M19.8923 8.10383C19.9673 8.04734 19.9893 7.94433 19.9439 7.86214C19.8985 7.77994 19.7997 7.74367 19.7119 7.777C19.5314 7.84562 15.2909 9.48012 15.2909 11.4552C15.2909 12.8165 15.8724 13.5358 16.2971 14.061C16.4636 14.267 16.6074 14.4449 16.6548 14.5967C16.7882 15.0344 16.4722 15.8255 16.3393 16.0933C16.301 16.1704 16.3197 16.2637 16.3849 16.3199C16.4201 16.3503 16.4641 16.3657 16.5081 16.3657C16.5456 16.3657 16.5832 16.3545 16.6157 16.3319C16.6887 16.2812 18.3977 15.0729 18.0911 13.6171C17.9769 13.0638 17.705 12.6595 17.4651 12.3027C17.0934 11.75 16.8249 11.3507 17.2322 10.6133C17.7095 9.75333 19.8705 8.12019 19.8923 8.10383Z" fill="white"/>
<path d="M8.8543 16.3971C8.7816 16.6147 8.81591 16.8307 8.95346 17.0217C9.41316 17.6599 11.0414 18.0113 13.5385 18.0113C13.5387 18.0113 13.5387 18.0113 13.5388 18.0113C13.8772 18.0113 14.2344 18.0047 14.6003 17.9916C18.5927 17.8486 20.0735 16.6049 20.1346 16.552C20.2012 16.4944 20.219 16.3984 20.1776 16.3207C20.1362 16.2431 20.0469 16.2042 19.9616 16.2276C18.5556 16.6115 15.93 16.7478 14.1088 16.7478C12.071 16.7478 11.0333 16.601 10.7792 16.4927C10.9096 16.3136 11.7137 15.994 12.7101 15.798C12.8053 15.7793 12.8708 15.6914 12.8613 15.5948C12.8519 15.4982 12.7708 15.4245 12.6737 15.4245C12.0896 15.4246 9.16046 15.4715 8.8543 16.3971Z" fill="white"/>
<path d="M22.2136 15.1162C21.3902 15.1162 20.6093 15.5289 20.5764 15.5464C20.5003 15.5872 20.4616 15.6746 20.4825 15.7584C20.5035 15.8422 20.5788 15.9011 20.6653 15.9012C20.6827 15.9012 22.4218 15.9154 22.5793 16.909C22.7188 17.7662 20.9339 19.1551 20.2343 19.6179C20.1587 19.6679 20.1294 19.7646 20.1645 19.8481C20.1942 19.9192 20.2635 19.9637 20.3382 19.9637C20.3512 19.9637 20.3644 19.9623 20.3776 19.9595C20.5436 19.924 24.4387 19.0657 24.0269 16.7978C23.7757 15.4079 22.9021 15.1162 22.2136 15.1162Z" fill="white"/>
<path d="M19.5424 19.3404C19.556 19.2677 19.5258 19.1938 19.4653 19.1515L18.5313 18.4973C18.4858 18.4654 18.4283 18.4553 18.3748 18.4695C18.3651 18.4721 17.3884 18.7288 15.9704 18.8862C15.4076 18.9494 14.7772 18.9827 14.1473 18.9827C12.7297 18.9827 11.8028 18.8161 11.6678 18.6939C11.6499 18.6596 11.6556 18.644 11.6588 18.6353C11.6833 18.5671 11.8147 18.486 11.8995 18.454C11.993 18.4194 12.0435 18.3177 12.0144 18.2223C11.9854 18.1268 11.8869 18.0705 11.7898 18.0939C10.8529 18.32 10.3948 18.6362 10.4281 19.0336C10.4873 19.7381 12.1194 20.0998 13.4992 20.1955C13.6976 20.2091 13.9122 20.216 14.1369 20.216C14.137 20.216 14.1371 20.216 14.1372 20.216C16.4316 20.216 19.3728 19.4961 19.4022 19.4888C19.474 19.4711 19.5288 19.4131 19.5424 19.3404Z" fill="white"/>
<path d="M12.5011 20.8528C12.5719 20.8067 12.6032 20.7193 12.5781 20.6388C12.5531 20.5582 12.4777 20.5054 12.3931 20.5064C12.2676 20.5097 11.1646 20.5595 11.0873 21.2618C11.064 21.4717 11.1241 21.6633 11.2661 21.8316C11.6621 22.3009 12.7311 22.5799 14.5337 22.6845C14.747 22.6972 14.9635 22.7036 15.1776 22.7036C17.4693 22.7036 19.0127 21.9861 19.0773 21.9556C19.14 21.9259 19.1813 21.8644 19.185 21.7952C19.1887 21.726 19.1542 21.6603 19.0951 21.6242L17.9148 20.9037C17.8738 20.8787 17.8248 20.8704 17.778 20.88C17.7706 20.8816 17.0212 21.037 15.8902 21.1906C15.6762 21.2196 15.4082 21.2344 15.0937 21.2344C13.9639 21.2344 12.7073 21.0498 12.4663 20.929C12.4628 20.9063 12.4673 20.8777 12.5011 20.8528Z" fill="white"/>
<path d="M14.1096 24.8701C19.3589 24.8656 22.1762 23.9321 22.719 23.3447C22.9111 23.1368 22.9318 22.94 22.9155 22.8115C22.8751 22.4953 22.5871 22.3017 22.5544 22.2807C22.4756 22.23 22.3699 22.2433 22.3084 22.3141C22.2471 22.3851 22.2457 22.4886 22.3072 22.5594C22.3403 22.6021 22.3595 22.6733 22.2627 22.7702C22.0457 22.9728 19.8573 23.588 16.2137 23.7727C15.7146 23.7987 15.1911 23.8118 14.6578 23.8119C11.3954 23.8119 9.00787 23.3651 8.69446 23.1047C8.81535 22.9311 9.65978 22.6538 10.5579 22.497C10.6591 22.4794 10.7275 22.384 10.7118 22.2825C10.6961 22.181 10.6025 22.1111 10.5003 22.1244C10.475 22.1278 10.3891 22.1331 10.2894 22.1391C8.80758 22.2296 7.09511 22.4313 7.00575 23.1948C6.9786 23.4275 7.04775 23.6386 7.21131 23.8225C7.61151 24.2721 8.76188 24.87 14.1094 24.87C14.1095 24.8701 14.1095 24.8701 14.1096 24.8701Z" fill="white"/>
<path d="M23.75 23.5102C23.6758 23.4759 23.5882 23.4932 23.5327 23.553C23.525 23.5612 22.7358 24.3865 20.3629 24.8711C19.4545 25.0531 17.7492 25.1454 15.2946 25.1454C12.8353 25.1454 10.4953 25.0487 10.4719 25.0477C10.3742 25.043 10.2906 25.114 10.2773 25.2102C10.2639 25.3064 10.3259 25.397 10.4203 25.4195C10.4447 25.4253 12.8971 25.9998 16.2502 25.9998C17.8585 25.9998 19.4235 25.8692 20.9018 25.6114C23.6582 25.1282 23.8512 23.7614 23.8581 23.7035C23.8676 23.6225 23.8241 23.5445 23.75 23.5102Z" fill="white"/>
</svg>
