<svg width="32" height="32" viewBox="0 0 32 32" fill="none" xmlns="http://www.w3.org/2000/svg">
<circle cx="16" cy="16" r="16" fill="#242424"/>
<path d="M18.5215 18.9335C17.7564 19.008 16.9856 18.8677 16.2959 18.5282C16.1396 18.4032 16.0107 18.2475 15.917 18.0707C15.8232 17.8939 15.7668 17.6998 15.751 17.5003C15.7507 17.4705 15.7445 17.441 15.7327 17.4136C15.7209 17.3861 15.7038 17.3613 15.6823 17.3406C15.6609 17.3198 15.6355 17.3035 15.6077 17.2926C15.5799 17.2817 15.5503 17.2764 15.5204 17.2771C15.1983 17.2731 14.8762 17.274 14.5541 17.2766C14.4978 17.2709 14.4415 17.2876 14.3975 17.323C14.3534 17.3585 14.3251 17.4099 14.3187 17.4662C14.3003 17.8161 14.3595 18.1658 14.4919 18.4903C14.6244 18.8148 14.8269 19.1059 15.0849 19.3431C15.7364 19.8514 16.5273 20.1489 17.3523 20.196C18.2119 20.2957 19.0818 20.2587 19.9298 20.0865C20.581 19.9651 21.178 19.6433 21.6375 19.1662C21.8915 18.853 22.0618 18.4804 22.1322 18.0834C22.2027 17.6863 22.1711 17.2778 22.0404 16.8963C21.9306 16.6274 21.7607 16.3872 21.5437 16.1941C21.3267 16.0011 21.0683 15.8603 20.7884 15.7826C19.4852 15.3253 18.0774 15.3599 16.7488 15.0124C16.5181 14.9398 16.2363 14.861 16.1335 14.6168C16.0741 14.445 16.07 14.2588 16.1219 14.0846C16.1738 13.9103 16.279 13.7567 16.4227 13.6453C16.8398 13.4069 17.3148 13.2886 17.7951 13.3036C18.4469 13.2422 19.1039 13.3362 19.7123 13.5779C19.8951 13.6854 20.0523 13.8314 20.1729 14.0057C20.2936 14.1801 20.3749 14.3786 20.4111 14.5875C20.4129 14.6491 20.4376 14.7079 20.4804 14.7523C20.5233 14.7966 20.5812 14.8234 20.6427 14.8273C20.9626 14.8338 21.2825 14.829 21.6024 14.8295C21.6578 14.8361 21.7138 14.8225 21.7601 14.7911C21.8063 14.7598 21.8397 14.7128 21.854 14.6588C21.8569 14.2274 21.747 13.8027 21.5352 13.4268C21.3234 13.0509 21.0171 12.7369 20.6466 12.5158C19.6239 12.0439 18.4889 11.8702 17.3719 12.0148V12.0147C16.5535 12.0482 15.7716 12.3624 15.1576 12.9044C14.8757 13.2083 14.6848 13.5852 14.6066 13.9922C14.5285 14.3993 14.5662 14.8201 14.7156 15.2067C14.8318 15.4658 15.0029 15.6965 15.2169 15.883C15.4309 16.0695 15.6829 16.2074 15.9553 16.2871C17.2542 16.7563 18.6778 16.6057 19.9893 17.0206C20.2449 17.1073 20.5425 17.2399 20.6208 17.5244C20.6629 17.6948 20.6597 17.8733 20.6116 18.0422C20.5634 18.2111 20.472 18.3644 20.3464 18.4871C19.801 18.826 19.1618 18.9823 18.5215 18.9335ZM24.4425 10.3399C21.9065 8.90588 19.37 7.47312 16.8328 6.04165C16.5783 5.8993 16.2915 5.82457 15.9998 5.82457C15.7081 5.82457 15.4214 5.8993 15.1668 6.04165C12.6395 7.46879 10.1121 8.89586 7.58461 10.3229C7.33872 10.4569 7.13317 10.6543 6.98928 10.8945C6.84539 11.1347 6.7684 11.4091 6.7663 11.6891V20.312C6.77034 20.5972 6.85148 20.8759 7.0011 21.1186C7.15072 21.3614 7.36325 21.5591 7.61615 21.6908C8.34218 22.086 9.04757 22.5214 9.78675 22.8903C10.2134 23.1184 10.6873 23.2441 11.1708 23.2574C11.6544 23.2706 12.1345 23.1712 12.573 22.9669C12.9011 22.7614 13.1681 22.4716 13.3462 22.1278C13.5242 21.7839 13.6068 21.3986 13.5853 21.0121C13.5909 18.1663 13.5862 15.3204 13.5875 12.4746C13.5924 12.4435 13.5907 12.4117 13.5825 12.3813C13.5743 12.3508 13.5598 12.3225 13.5399 12.2981C13.52 12.2737 13.4951 12.2537 13.467 12.2396C13.4388 12.2254 13.408 12.2174 13.3765 12.216C13.0536 12.2108 12.7301 12.2129 12.4072 12.2151C12.3773 12.2124 12.3472 12.2161 12.3188 12.2259C12.2904 12.2357 12.2644 12.2513 12.2425 12.2719C12.2206 12.2924 12.2033 12.3173 12.1917 12.345C12.1801 12.3727 12.1745 12.4025 12.1752 12.4326C12.1708 15.2601 12.1761 18.0884 12.1726 20.9163C12.1733 21.1115 12.1144 21.3022 12.0036 21.463C11.8928 21.6237 11.7356 21.7467 11.5529 21.8155C11.3426 21.8777 11.1215 21.8948 10.904 21.8657C10.6866 21.8366 10.4778 21.762 10.2912 21.6467C9.61861 21.2668 8.94601 20.8869 8.27343 20.5071C8.22887 20.486 8.19184 20.4517 8.16735 20.4089C8.14285 20.3661 8.13206 20.3168 8.13643 20.2677C8.13643 17.4228 8.13643 14.578 8.13643 11.7333C8.13175 11.678 8.14468 11.6226 8.17337 11.575C8.20206 11.5275 8.24505 11.4902 8.29618 11.4685C10.8152 10.0498 13.3336 8.62963 15.8517 7.20794C15.8954 7.17807 15.9471 7.16213 16.0001 7.16221C16.0531 7.16229 16.1048 7.17838 16.1484 7.20838C18.6673 8.62754 21.186 10.0472 23.7047 11.4673C23.7556 11.4896 23.7983 11.5272 23.8267 11.5749C23.8552 11.6226 23.8681 11.678 23.8636 11.7334C23.8631 14.5778 23.8628 17.4224 23.8627 20.2673C23.8672 20.3167 23.8566 20.3662 23.8325 20.4094C23.8084 20.4527 23.7717 20.4877 23.7274 20.5098C21.247 21.9123 18.7653 23.3128 16.2823 24.7113C16.1637 24.7774 16.0232 24.8837 15.8845 24.8037C15.2342 24.4356 14.5918 24.0532 13.9437 23.6816C13.9106 23.6563 13.8706 23.6414 13.829 23.6389C13.7873 23.6364 13.7459 23.6464 13.71 23.6676C13.4245 23.8348 13.124 23.9751 12.8124 24.0864C12.6719 24.1433 12.4991 24.1595 12.4024 24.2898C12.5257 24.4239 12.675 24.5315 12.8412 24.6059C13.5993 25.0448 14.3577 25.4833 15.1165 25.9214C15.3674 26.079 15.6561 26.1665 15.9523 26.1747C16.2485 26.1829 16.5416 26.1116 16.8009 25.9682C19.3286 24.543 21.8561 23.1171 24.3835 21.6905C24.6362 21.5586 24.8486 21.3608 24.9982 21.1182C25.1479 20.8756 25.2293 20.5971 25.2338 20.312V11.6891C25.2317 11.4146 25.1574 11.1455 25.0186 10.9087C24.8797 10.6719 24.6811 10.4758 24.4425 10.3399H24.4425Z" fill="white"/>
</svg>
