<svg width="32" height="32" viewBox="0 0 32 32" fill="none" xmlns="http://www.w3.org/2000/svg">
<circle cx="16" cy="16" r="16" fill="#242424"/>
<g clip-path="url(#clip0_11:79)">
<path fill-rule="evenodd" clip-rule="evenodd" d="M9.63162 10.7895C9.63162 10.6354 9.69893 10.4213 9.95797 10.1519C10.2211 9.87809 10.6435 9.59194 11.2326 9.33277C12.4082 8.81552 14.093 8.47368 16 8.47368C17.9071 8.47368 19.5919 8.81552 20.7676 9.33277C21.3566 9.59194 21.779 9.87809 22.0422 10.1519C22.3012 10.4213 22.3685 10.6354 22.3685 10.7895C22.3685 10.9435 22.3012 11.1576 22.0422 11.4271C21.779 11.7009 21.3566 11.987 20.7676 12.2462C19.5919 12.7634 17.9071 13.1053 16 13.1053C14.093 13.1053 12.4082 12.7634 11.2326 12.2462C10.6435 11.987 10.2211 11.7009 9.95797 11.4271C9.69893 11.1576 9.63162 10.9435 9.63162 10.7895ZM7.89478 10.7895C7.89478 10.0642 8.23246 9.44064 8.70583 8.94821C9.17508 8.46006 9.81248 8.06008 10.5331 7.74302C11.9767 7.10782 13.9103 6.73684 16 6.73684C18.0898 6.73684 20.0234 7.10782 21.467 7.74302C22.1876 8.06008 22.825 8.46006 23.2942 8.94821C23.7677 9.44064 24.1053 10.0642 24.1053 10.7895V21.2105C24.1053 21.9358 23.7677 22.5594 23.2942 23.0518C22.825 23.54 22.1876 23.9399 21.467 24.2569C20.0234 24.8922 18.0898 25.2632 16 25.2632C13.9103 25.2632 11.9767 24.8922 10.5331 24.2569C9.81248 23.9399 9.17508 23.54 8.70583 23.0518C8.23246 22.5594 7.89478 21.9358 7.89478 21.2105V10.7895ZM9.63162 16V13.3652C9.91084 13.5387 10.2138 13.6954 10.5331 13.8359C11.9767 14.4711 13.9103 14.8421 16 14.8421C18.0898 14.8421 20.0234 14.4711 21.467 13.8359C21.7863 13.6954 22.0893 13.5387 22.3685 13.3652V16C22.3685 16.154 22.3012 16.3681 22.0422 16.6376C21.779 16.9114 21.3566 17.1975 20.7676 17.4567C19.5919 17.974 17.9071 18.3158 16 18.3158C14.093 18.3158 12.4082 17.974 11.2326 17.4567C10.6435 17.1975 10.2211 16.9114 9.95797 16.6376C9.69893 16.3681 9.63162 16.154 9.63162 16ZM9.63162 18.5757V21.2105C9.63162 21.3645 9.69893 21.5786 9.95797 21.8482C10.2211 22.1219 10.6435 22.408 11.2326 22.6673C12.4082 23.1845 14.093 23.5263 16 23.5263C17.9071 23.5263 19.5919 23.1845 20.7676 22.6673C21.3566 22.408 21.779 22.1219 22.0422 21.8482C22.3012 21.5786 22.3685 21.3645 22.3685 21.2105V18.5757C22.0893 18.7492 21.7863 18.906 21.467 19.0464C20.0234 19.6816 18.0898 20.0526 16 20.0526C13.9103 20.0526 11.9767 19.6816 10.5331 19.0464C10.2138 18.906 9.91084 18.7492 9.63162 18.5757Z" fill="white"/>
</g>
<defs>
<clipPath id="clip0_11:79">
<rect width="18.5263" height="18.5263" fill="white" transform="translate(6.73688 6.73684)"/>
</clipPath>
</defs>
</svg>
